HIERARCHY
ROOT Hips
{
	OFFSET 0.000000 0.000000 0.000000
	CHANNELS 6 Xposition Yposition Zposition Xrotation Yrotation Zrotation
	JOINT LeftUpLeg_virtual
	{
		OFFSET 0.000000 0.000000 0.000000
		CHANNELS 3 Xrotation Yrotation Zrotation
		JOINT LeftUpLeg
		{
			OFFSET 11.394100 -6.187798 -0.413800
			CHANNELS 3 Xrotation Yrotation Zrotation
			JOINT LeftLeg
			{
				OFFSET 0.430247 -32.302673 3.732800
				CHANNELS 3 Xrotation Yrotation Zrotation
				JOINT LeftFoot
				{
					OFFSET -0.430247 -48.264931 -6.423300
					CHANNELS 3 Xrotation Yrotation Zrotation
					JOINT LeftToeBase
					{
						OFFSET 4.230900 -16.068199 23.438400
						CHANNELS 3 Xrotation Yrotation Zrotation
						JOINT LeftToe_End
						{
							OFFSET 4.510700 0.695400 19.974600
							CHANNELS 3 Xrotation Yrotation Zrotation
							End Site
							{
								OFFSET 0 0 0
							}
						}
					}
				}
			}
		}
	}
	JOINT RightUpLeg_virtual
	{
		OFFSET 0.000000 0.000000 0.000000
		CHANNELS 3 Xrotation Yrotation Zrotation
		JOINT RightUpLeg
		{
			OFFSET -11.333700 -6.187798 -0.413800
			CHANNELS 3 Xrotation Yrotation Zrotation
			JOINT RightLeg
			{
				OFFSET -0.430392 -32.302628 3.733000
				CHANNELS 3 Xrotation Yrotation Zrotation
				JOINT RightFoot
				{
					OFFSET 0.430392 -48.264973 -6.423500
					CHANNELS 3 Xrotation Yrotation Zrotation
					JOINT RightToeBase
					{
						OFFSET -4.230900 -16.068199 23.438400
						CHANNELS 3 Xrotation Yrotation Zrotation
						JOINT RightToe_End
						{
							OFFSET -4.510700 0.695400 19.974600
							CHANNELS 3 Xrotation Yrotation Zrotation
							End Site
							{
								OFFSET 0 0 0
							}
						}
					}
				}
			}
		}
	}
	JOINT Spine_virtual
	{
		OFFSET 0.000000 0.000000 0.000000
		CHANNELS 3 Xrotation Yrotation Zrotation
		JOINT Spine
		{
			OFFSET -0.002400 12.777504 0.315300
			CHANNELS 3 Xrotation Yrotation Zrotation
			JOINT Spine1
			{
				OFFSET -0.002067 5.816869 0.032633
				CHANNELS 3 Xrotation Yrotation Zrotation
				JOINT Spine1_split
				{
					OFFSET -0.002067 5.816869 0.032633
					CHANNELS 3 Xrotation Yrotation Zrotation
					JOINT Spine2
					{
						OFFSET -0.002067 5.816869 0.032633
						CHANNELS 3 Xrotation Yrotation Zrotation
						JOINT Neck_virtual
						{
							OFFSET 0.000000 0.000000 0.000000
							CHANNELS 3 Xrotation Yrotation Zrotation
							JOINT Neck
							{
								OFFSET -0.003700 21.199493 -0.826900
								CHANNELS 3 Xrotation Yrotation Zrotation
								JOINT Head
								{
									OFFSET 0.000000 20.442200 4.834800
									CHANNELS 3 Xrotation Yrotation Zrotation
									JOINT HeadTop_End
									{
										OFFSET 0.000000 34.668396 4.968400
										CHANNELS 3 Xrotation Yrotation Zrotation
										End Site
										{
											OFFSET 0 0 0
										}
									}
								}
							}
						}
						JOINT LeftShoulder_virtual
						{
							OFFSET 0.000000 0.000000 0.000000
							CHANNELS 3 Xrotation Yrotation Zrotation
							JOINT LeftShoulder
							{
								OFFSET 3.288150 8.794197 -1.372250
								CHANNELS 3 Xrotation Yrotation Zrotation
								JOINT LeftShoulder_split
								{
									OFFSET 3.288150 8.794197 -1.372250
									CHANNELS 3 Xrotation Yrotation Zrotation
									JOINT LeftArm
									{
										OFFSET 11.953299 -2.279007 -0.146200
										CHANNELS 3 Xrotation Yrotation Zrotation
										JOINT LeftForeArm
										{
											OFFSET 18.448900 0.000000 0.000000
											CHANNELS 3 Xrotation Yrotation Zrotation
											JOINT LeftHand
											{
												OFFSET 29.527798 0.000000 0.000000
												CHANNELS 3 Xrotation Yrotation Zrotation
												End Site
												{
													OFFSET 0 0 0
												}
											}
										}
									}
								}
							}
						}
						JOINT RightShoulder_virtual
						{
							OFFSET 0.000000 0.000000 0.000000
							CHANNELS 3 Xrotation Yrotation Zrotation
							JOINT RightShoulder
							{
								OFFSET -3.249400 8.794197 -1.372250
								CHANNELS 3 Xrotation Yrotation Zrotation
								JOINT RightShoulder_split
								{
									OFFSET -3.249400 8.794197 -1.372250
									CHANNELS 3 Xrotation Yrotation Zrotation
									JOINT RightArm
									{
										OFFSET -11.953299 -2.279007 -0.146200
										CHANNELS 3 Xrotation Yrotation Zrotation
										JOINT RightForeArm
										{
											OFFSET -18.448900 0.000000 0.000000
											CHANNELS 3 Xrotation Yrotation Zrotation
											JOINT RightHand
											{
												OFFSET -29.527802 0.000000 0.000000
												CHANNELS 3 Xrotation Yrotation Zrotation
												End Site
												{
													OFFSET 0 0 0
												}
											}
										}
									}
								}
							}
						}
					}
				}
			}
		}
	}
}
MOTION
Frames: 9
Frame Time: 0.03333333
-0.403123 104.364937 -3.758728 0.000000 0.000000 0.000000 -86.888551 -6.694153 -1.092218 2.472990 21.396003 12.930757 -2.414380 0.954345 3.618706 17.861515 27.264568 -20.827671 -2.338806 -0.546382 0.156597 0.000000 0.000000 0.000000 -89.158393 -3.211636 1.011645 0.204182 -24.261805 -15.933621 -0.128326 -2.347768 -4.773886 29.132840 -29.814442 27.002207 -9.244338 1.288119 -5.746630 0.000000 0.000000 0.000000 -87.180528 -6.690041 -2.461436 1.213387 -0.276882 -0.229438 -1.299489 0.470128 -0.249279 0.720022 0.931322 -0.360959 0.000000 0.000000 0.000000 -1.329852 0.542284 -0.293119 -5.359683 4.462445 -8.736317 3.417055 8.155655 -11.355495 0.000000 0.000000 0.000000 -0.361466 0.558619 -0.083072 0.316994 -6.162160 -0.619337 -0.569231 1.523992 -3.114867 45.180165 -42.043943 -31.449203 4.579570 -86.245475 3.801278 0.000000 0.000000 0.000000 -0.269101 0.838835 -0.486855 0.348734 0.536348 2.731354 7.358690 7.436314 -0.737057 -4.960728 1.411407 81.085923 -179.242223 54.443472 -179.915693 0.000000 0.000000 0.000000 
-0.377820 104.368233 -3.754517 0.000000 0.000000 0.000000 -86.894234 -6.681894 -1.077443 2.468950 21.372381 12.932149 -2.423303 0.935542 3.602335 17.856741 27.254504 -20.817274 -2.337648 -0.548121 0.159885 0.000000 0.000000 0.000000 -89.154295 -3.204949 1.022407 0.193004 -24.266142 -15.948852 -0.137054 -2.344505 -4.777796 29.140227 -29.810303 27.004500 -9.259535 1.281859 -5.740767 0.000000 0.000000 0.000000 -87.177249 -6.673607 -2.460198 1.220082 -0.273267 -0.213414 -1.296162 0.472487 -0.246895 0.739712 0.917169 -0.345794 0.000000 0.000000 0.000000 -1.334683 0.547881 -0.291678 -5.306340 4.521814 -8.778850 3.498116 8.261290 -11.352078 0.000000 0.000000 0.000000 -0.355088 0.559633 -0.093903 0.316777 -6.171295 -0.627390 -0.551366 1.580237 -3.078743 45.159073 -42.057631 -31.462918 4.607080 -86.245427 3.829369 0.000000 0.000000 0.000000 -0.255503 0.852304 -0.476796 0.359599 0.536975 2.739824 7.354070 7.423151 -0.772942 -4.925219 1.462225 81.035215 -179.269216 54.456579 -179.881242 0.000000 0.000000 0.000000 
-0.352626 104.373451 -3.751709 0.000000 0.000000 0.000000 -86.897601 -6.670722 -1.057270 2.468405 21.352134 12.927878 -2.434403 0.906738 3.587427 17.848155 27.243965 -20.802871 -2.326886 -0.551694 0.157332 0.000000 0.000000 0.000000 -89.149330 -3.200315 1.036913 0.174660 -24.285600 -15.971040 -0.139059 -2.337418 -4.786141 29.128790 -29.812560 27.000224 -9.285056 1.277354 -5.731541 0.000000 0.000000 0.000000 -87.175111 -6.669015 -2.465275 1.229250 -0.275451 -0.187612 -1.295333 0.473952 -0.242414 0.749811 0.899791 -0.316707 0.000000 0.000000 0.000000 -1.341714 0.552083 -0.289532 -5.318913 4.562146 -8.768638 3.865708 8.383780 -11.535754 0.000000 0.000000 0.000000 -0.349164 0.556200 -0.101426 0.311713 -6.167288 -0.647869 -0.520520 1.639506 -3.019054 45.113690 -42.060988 -31.519848 4.495547 -86.245427 3.721854 0.000000 0.000000 0.000000 -0.243584 0.862495 -0.466113 0.372343 0.530353 2.776854 7.337174 7.413594 -0.803407 -4.916250 1.573118 80.948124 -179.290348 54.507648 -179.841080 0.000000 0.000000 0.000000 
-0.328983 104.379272 -3.754826 0.000000 0.000000 0.000000 -86.898195 -6.662930 -1.035170 2.468218 21.334856 12.921284 -2.441504 0.866172 3.575919 17.834044 27.231918 -20.790341 -2.310367 -0.556438 0.149747 0.000000 0.000000 0.000000 -89.142739 -3.195425 1.055535 0.146104 -24.319459 -15.998338 -0.130913 -2.323897 -4.796781 29.107794 -29.814660 26.996447 -9.323107 1.274682 -5.719118 0.000000 0.000000 0.000000 -87.176232 -6.674944 -2.477356 1.238189 -0.283672 -0.156152 -1.298165 0.474381 -0.236417 0.748170 0.880008 -0.288326 0.000000 0.000000 0.000000 -1.352372 0.555551 -0.285201 -5.393705 4.584045 -8.720571 4.505294 8.511250 -11.898478 0.000000 0.000000 0.000000 -0.342992 0.548573 -0.105715 0.304130 -6.155585 -0.686489 -0.480791 1.691171 -2.936608 45.054598 -42.055131 -31.598016 4.243572 -86.225865 3.479175 0.000000 0.000000 0.000000 -0.233789 0.868236 -0.456642 0.386872 0.509059 2.831687 7.314328 7.417950 -0.830874 -4.925908 1.724190 80.839366 -179.295048 54.555665 -179.809006 0.000000 0.000000 0.000000 
-0.308957 104.384727 -3.763779 0.000000 0.000000 0.000000 -86.901515 -6.662042 -1.016176 2.465025 21.321481 12.915164 -2.441231 0.812020 3.568608 17.816789 27.214744 -20.787264 -2.293175 -0.561765 0.138595 0.000000 0.000000 0.000000 -89.133907 -3.184716 1.082165 0.114318 -24.366869 -16.026255 -0.117057 -2.299887 -4.808845 29.082484 -29.811942 26.996295 -9.385443 1.274755 -5.705467 0.000000 0.000000 0.000000 -87.184066 -6.692337 -2.497302 1.244332 -0.297858 -0.123675 -1.302971 0.474134 -0.230155 0.750954 0.865124 -0.265850 0.000000 0.000000 0.000000 -1.364632 0.557966 -0.278875 -5.520587 4.594377 -8.654922 5.364637 8.634046 -12.419067 0.000000 0.000000 0.000000 -0.334954 0.538310 -0.108029 0.294825 -6.134539 -0.749605 -0.448280 1.724296 -2.840516 44.990060 -42.045941 -31.673346 3.880481 -86.177815 3.131203 0.000000 0.000000 0.000000 -0.225069 0.870435 -0.449866 0.400539 0.467913 2.890232 7.291325 7.437217 -0.851506 -4.945974 1.887697 80.731873 -179.278710 54.570876 -179.794061 0.000000 0.000000 0.000000 
-0.293511 104.387466 -3.770607 0.000000 0.000000 0.000000 -86.912559 -6.667490 -1.002431 2.458093 21.314671 12.911473 -2.432381 0.746141 3.564550 17.796777 27.191760 -20.795151 -2.277734 -0.567558 0.124995 0.000000 0.000000 0.000000 -89.126380 -3.165842 1.116858 0.084469 -24.426421 -16.050135 -0.100671 -2.268348 -4.821821 29.055246 -29.807260 26.995059 -9.471211 1.277417 -5.691043 0.000000 0.000000 0.000000 -87.200834 -6.717930 -2.520927 1.245002 -0.315511 -0.095960 -1.307381 0.473940 -0.223886 0.754901 0.862538 -0.258669 0.000000 0.000000 0.000000 -1.376779 0.559828 -0.271121 -5.683455 4.603107 -8.592830 6.376020 8.759120 -13.061339 0.000000 0.000000 0.000000 -0.326091 0.527719 -0.108544 0.285271 -6.103073 -0.834280 -0.433610 1.728206 -2.751873 44.921154 -42.043595 -31.726738 3.507911 -86.111883 2.777103 0.000000 0.000000 0.000000 -0.217874 0.870162 -0.446485 0.408777 0.403479 2.937358 7.279829 7.473491 -0.868870 -4.964871 2.038681 80.640471 -179.245310 54.549989 -179.797613 0.000000 0.000000 0.000000 
-0.283105 104.386597 -3.773270 0.000000 0.000000 0.000000 -86.930399 -6.676811 -0.993107 2.448610 21.321571 12.910628 -2.416628 0.676127 3.562910 17.770981 27.167564 -20.808337 -2.263258 -0.573188 0.109065 0.000000 0.000000 0.000000 -89.125192 -3.143586 1.152902 0.054111 -24.496762 -16.068575 -0.082336 -2.236120 -4.834226 29.027365 -29.807973 26.985400 -9.563624 1.281670 -5.674570 0.000000 0.000000 0.000000 -87.223804 -6.749524 -2.545093 1.241911 -0.333344 -0.076697 -1.310365 0.474088 -0.218827 0.760130 0.884574 -0.254702 0.000000 0.000000 0.000000 -1.390344 0.561526 -0.262456 -5.871103 4.617014 -8.549709 7.442073 8.886103 -13.765966 0.000000 0.000000 0.000000 -0.317369 0.519305 -0.107400 0.277079 -6.056363 -0.937031 -0.428370 1.720634 -2.671718 44.856912 -42.061350 -31.742508 3.183275 -86.047051 2.470601 0.000000 0.000000 0.000000 -0.209493 0.868873 -0.446191 0.409881 0.320008 2.965221 7.283535 7.516990 -0.894193 -4.977241 2.166006 80.582579 -179.205996 54.519277 -179.814374 0.000000 0.000000 0.000000 
-0.276313 104.386536 -3.773449 0.000000 0.000000 0.000000 -86.950104 -6.684713 -0.985722 2.435784 21.348456 12.913057 -2.398958 0.608595 3.563698 17.736668 27.146742 -20.820351 -2.249837 -0.577574 0.091262 0.000000 0.000000 0.000000 -89.129112 -3.121734 1.185570 0.021463 -24.575772 -16.081349 -0.062520 -2.206652 -4.844628 29.001448 -29.816924 26.967694 -9.649620 1.286156 -5.655056 0.000000 0.000000 0.000000 -87.250373 -6.783063 -2.564035 1.239313 -0.349066 -0.067112 -1.310243 0.474794 -0.214883 0.753958 0.911406 -0.247398 0.000000 0.000000 0.000000 -1.404898 0.563547 -0.254566 -6.076402 4.639833 -8.528675 8.452858 9.012061 -14.467555 0.000000 0.000000 0.000000 -0.311574 0.514915 -0.103813 0.270957 -5.987735 -1.043447 -0.429751 1.700320 -2.604034 44.818670 -42.097338 -31.707367 2.914331 -85.995715 2.216168 0.000000 0.000000 0.000000 -0.198315 0.868224 -0.447599 0.401298 0.223517 2.971395 7.299860 7.562829 -0.909633 -4.987492 2.260140 80.564499 -179.172377 54.516630 -179.838048 0.000000 0.000000 0.000000 
-0.271534 104.387955 -3.772205 0.000000 0.000000 0.000000 -86.968068 -6.689242 -0.979845 2.418384 21.395156 12.917757 -2.381846 0.548412 3.566056 17.696786 27.131885 -20.829951 -2.239405 -0.580291 0.073869 0.000000 0.000000 0.000000 -89.134577 -3.103055 1.213232 -0.012821 -24.657031 -16.089084 -0.040827 -2.180675 -4.851368 28.979598 -29.833293 26.945622 -9.727836 1.290133 -5.633438 0.000000 0.000000 0.000000 -87.274962 -6.813781 -2.574969 1.238655 -0.360912 -0.067306 -1.306843 0.474928 -0.212249 0.744002 0.948040 -0.242190 0.000000 0.000000 0.000000 -1.420271 0.565192 -0.247768 -6.295451 4.659330 -8.519815 9.323325 9.120594 -15.097928 0.000000 0.000000 0.000000 -0.312381 0.515102 -0.097582 0.268630 -5.906078 -1.135658 -0.436934 1.667393 -2.547353 44.813329 -42.142851 -31.626013 2.696843 -85.960854 2.010281 0.000000 0.000000 0.000000 -0.188070 0.868025 -0.450602 0.383887 0.117208 2.954443 7.326386 7.607926 -0.895983 -5.000209 2.321148 80.579860 -179.148786 54.556215 -179.865887 0.000000 0.000000 0.000000 
